PathFileType	4	(X/Y/Z)	C:/Users/opensim2020/Desktop/walking_exp_matlab/subject06_walking13_straight_02.trc																																																																																																																																																				
DataRate	CameraRate	NumFrames	NumMarkers	Units	OrigDataRate	OrigDataStartFrame	OrigNumFrames																																																																																																																																																
100	100	4	50	mm	100	1636	199																																																																																																																																																
Frame#	Time	LFHD			RFHD			LBHD			RBHD			C7			T10			CLAV			STRN			RBAK			LSHO			LUPA			LELB			LFRM			LWRA			LWRB			LFIN			RSHO			RUPA			RELB			RFRM			RWRA			RWRB			RFIN			LASI			RASI			LPSI			RPSI			LTHI			LKNE			LTIB			LANK			LHEE			LTOE			RTHI			RKNE			RTIB			RANK			RHEE			RTOE			*39			*40			*41			*42			*43			*44			*45			*46			*47			*48			*49		
		X1	Y1	Z1	X2	Y2	Z2	X3	Y3	Z3	X4	Y4	Z4	X5	Y5	Z5	X6	Y6	Z6	X7	Y7	Z7	X8	Y8	Z8	X9	Y9	Z9	X10	Y10	Z10	X11	Y11	Z11	X12	Y12	Z12	X13	Y13	Z13	X14	Y14	Z14	X15	Y15	Z15	X16	Y16	Z16	X17	Y17	Z17	X18	Y18	Z18	X19	Y19	Z19	X20	Y20	Z20	X21	Y21	Z21	X22	Y22	Z22	X23	Y23	Z23	X24	Y24	Z24	X25	Y25	Z25	X26	Y26	Z26	X27	Y27	Z27	X28	Y28	Z28	X29	Y29	Z29	X30	Y30	Z30	X31	Y31	Z31	X32	Y32	Z32	X33	Y33	Z33	X34	Y34	Z34	X35	Y35	Z35	X36	Y36	Z36	X37	Y37	Z37	X38	Y38	Z38	X39	Y39	Z39	X40	Y40	Z40	X41	Y41	Z41	X42	Y42	Z42	X43	Y43	Z43	X44	Y44	Z44	X45	Y45	Z45	X46	Y46	Z46	X47	Y47	Z47	X48	Y48	Z48	X49	Y49	Z49	X50	Y50	Z50
																																																																																																																																																							
100	0.99	18.32589	1664.53906	-1500.84521	13.30188	1649.69592	-1369.42871	-117.35123	1614.88049	-1506.74915	-120.80442	1605.99719	-1377.60852	-123.61866	1452.22766	-1454.18274	-151.86044	1121.62329	-1452.97791	-13.10029	1375.84961	-1450.38293	30.02723	1199.96399	-1460.49817	-195.76863	1278.05042	-1383.77539	-62.67499	1408.57312	-1614.16956	-47.2066	1206.09106	-1685.98254	-36.77729	1093.51538	-1697.4801	32.27003	959.57092	-1716.41772	133.1317	880.66028	-1674.32458	76.54325	848.46802	-1703.9585	147.10046	792.41003	-1706.20728	-62.1027	1401.06433	-1289.35901	-115.34908	1200.05249	-1212.16895	-115.05935	1077.41602	-1205.11938	-108.20316	956.68213	-1192.47949	-55.55115	815.10553	-1225.6554	-112.93916	818.46533	-1189.93604	-81.47205	739.87836	-1189.02979	24.46787	956.31714	-1555.82825	29.96768	975.98883	-1335.32849	-132.93933	983.47534	-1524.79541	-122.67765	997.69562	-1357.02832	-23.066	636.8385	-1604.16675	-6.49388	474.64432	-1586.30505	-200.28033	323.53946	-1586.41028	-335.92557	216.66429	-1554.73669	-371.38367	238.97676	-1508.72266	-285.5181	79.92848	-1548.33032	13.96954	643.79895	-1282.10583	35.53122	521.7005	-1313.75452	1.38337	254.83427	-1323.97937	-9.94133	71.80754	-1377.36316	-48.16808	47.88766	-1424.45557	141.97832	39.5876	-1378.23303	-82.53785	1704.80298	-1443.35034	NaN	NaN	NaN	NaN	NaN	NaN	NaN	NaN	NaN	NaN	NaN	NaN	NaN	NaN	NaN	NaN	NaN	NaN	NaN	NaN	NaN	NaN	NaN	NaN	NaN	NaN	NaN	NaN	NaN	NaN
101	1	29.20208	1665.15674	-1500.59534	24.14006	1650.62305	-1369.17749	-106.5026	1615.75195	-1506.47058	-110.00355	1607.14514	-1377.38977	-113.18538	1453.2843	-1453.46497	-142.14037	1122.89233	-1451.82263	-2.77486	1376.75647	-1449.91455	39.94894	1200.86108	-1459.8811	-185.30315	1279.56409	-1382.23901	-52.94217	1409.37561	-1613.5802	-38.88609	1206.59741	-1684.99658	-30.27194	1093.73413	-1695.87537	34.67377	957.6145	-1714.55249	132.68352	875.00519	-1673.1875	74.99857	844.98779	-1702.38306	143.30159	786.3634	-1705.3916	-50.79602	1402.10205	-1288.75989	-101.79932	1200.51208	-1210.98767	-100.37839	1077.89697	-1204.31055	-91.06173	957.37762	-1191.95532	-35.31031	817.40613	-1225.85864	-92.61272	819.0835	-1190.15515	-59.13964	741.36774	-1189.62683	34.3688	957.56531	-1554.77625	39.12088	976.74951	-1334.27075	-123.27472	984.31818	-1524.17627	-113.31161	998.23865	-1356.32629	-8.07198	638.44073	-1603.57129	12.08843	476.8457	-1585.54297	-179.72618	323.86426	-1586.12512	-314.43253	215.89055	-1554.69116	-350.43863	236.87787	-1508.38196	-260.42719	81.02567	-1550.6156	20.97986	643.62231	-1281.72546	41.34357	521.24445	-1313.54858	3.86509	254.82098	-1323.93567	-9.68179	71.9036	-1377.48376	-48.13049	48.02792	-1424.57434	142.09576	39.22704	-1378.29712	-71.53025	1705.76416	-1443.30359	NaN	NaN	NaN	NaN	NaN	NaN	NaN	NaN	NaN	NaN	NaN	NaN	NaN	NaN	NaN	NaN	NaN	NaN	NaN	NaN	NaN	NaN	NaN	NaN	NaN	NaN	NaN	NaN	NaN	NaN
102	1.01	40.19554	1665.71655	-1500.50183	35.07924	1651.4696	-1369.05493	-95.65518	1616.6947	-1506.23669	-99.09087	1608.33472	-1377.16052	-102.95461	1454.23169	-1452.56714	-132.48416	1123.99341	-1450.71838	7.4813	1377.55896	-1449.47888	49.97243	1201.63867	-1459.28992	-174.8674	1280.83093	-1380.74768	-43.2082	1410.17847	-1612.94568	-30.59751	1207.20581	-1684.03845	-23.86261	1094.06738	-1694.27148	37.0401	956.08228	-1713.27747	131.75975	869.51166	-1671.90833	73.02927	841.83301	-1701.44238	139.09148	780.7608	-1704.64038	-39.68115	1403.15247	-1288.21094	-88.15577	1201.05432	-1209.99634	-85.86569	1078.60303	-1203.61487	-74.16979	958.26227	-1191.50732	-14.75755	820.05493	-1225.9585	-71.7252	820.10278	-1190.54797	-36.72093	743.41846	-1190.14661	44.2738	958.83069	-1553.59595	48.48504	977.39777	-1333.04846	-113.60677	985.17627	-1523.47559	-104.02225	998.74847	-1355.68799	6.57413	639.99969	-1603.18274	30.34251	479.09357	-1584.75513	-159.30461	323.54367	-1585.5376	-292.25323	213.8716	-1554.63379	-329.02313	233.48102	-1507.98499	-233.83665	81.40829	-1552.39478	27.82644	643.29651	-1281.33386	47.11638	520.63751	-1313.42566	5.96133	254.7579	-1324.15393	-9.48187	72.01739	-1377.77112	-48.10698	48.20554	-1424.76038	142.11618	39.1595	-1378.36108	-60.47424	1706.71387	-1443.28735	NaN	NaN	NaN	NaN	NaN	NaN	NaN	NaN	NaN	NaN	NaN	NaN	NaN	NaN	NaN	NaN	NaN	NaN	NaN	NaN	NaN	NaN	NaN	NaN	NaN	NaN	NaN	NaN	NaN	NaN
103	1.02	51.21083	1666.13696	-1500.47095	46.00556	1652.23718	-1368.86975	-84.89037	1617.52161	-1505.93018	-88.3247	1609.56592	-1376.77625	-92.6861	1455.04492	-1451.74731	-122.70083	1124.93945	-1449.6853	17.70452	1378.28479	-1449.0647	59.89273	1202.35486	-1458.771	-164.49715	1281.89563	-1379.31384	-33.59361	1411.05774	-1612.37964	-22.55834	1207.91016	-1683.17676	-17.54031	1094.46216	-1692.77209	39.00307	954.49792	-1711.60315	130.63765	864.3833	-1670.71655	70.69238	839.05273	-1700.31226	134.42612	775.526	-1703.91809	-28.76521	1404.21289	-1287.72009	-74.78578	1201.72656	-1209.06445	-71.12906	1079.48499	-1203.25085	-57.2594	959.3949	-1191.23901	5.94189	823.11743	-1226.1864	-51.24817	821.38947	-1190.89905	-13.94614	745.92352	-1190.51697	54.27218	960.08142	-1552.32043	57.18795	977.7041	-1331.76636	-103.90174	986.02661	-1522.71594	-94.71458	999.22632	-1354.90674	21.14181	641.43091	-1602.71765	48.21553	481.44446	-1584.05908	-138.56131	323.06754	-1585.15515	-269.43103	210.79669	-1554.6615	-307.03278	228.80072	-1507.81482	-206.25888	80.85973	-1554.0155	34.77568	643.13013	-1281.02563	52.55706	520.02087	-1313.22644	7.74063	254.68121	-1324.33789	-9.2356	72.21417	-1378.11377	-47.97832	48.42747	-1425.09277	142.29834	39.00451	-1378.33472	-49.38036	1707.60583	-1443.25598	NaN	NaN	NaN	NaN	NaN	NaN	NaN	NaN	NaN	NaN	NaN	NaN	NaN	NaN	NaN	NaN	NaN	NaN	NaN	NaN	NaN	NaN	NaN	NaN	NaN	NaN	NaN	NaN	NaN	NaN
